<svg id="レイヤー_1" data-name="レイヤー 1" xmlns="http://www.w3.org/2000/svg" viewBox="0 0 1469.99 1352.06"><defs><style>.cls-1{fill:#fff;fill-rule:evenodd;}</style></defs><path class="cls-1" d="M964.54,67.45C865.34,7.28,767.85,1.5,652.35.11c-167.68-2-376.71,22.2-502.19,140.24-78.07,73.44-58.08,158.74-78.34,250-33,148.54-98.38,300.59-60.21,455.26,14.06,57,49.06,95.32,72.92,147.19l17.88,104.32c13.18,64.09,55.1,130.58,114.94,164.63,85.44,48.63,273.48,43.56,371.46,49.18l262.6,38.41c174.41,18.2,342.6-54.64,444.68-191.06,37.77-50.48,80-112,95.27-172.66l11.31-104.18c47.43-155.13,107.27-331.55,30.57-490C1371.14,263,1218.59,189,1087,141.63c-46.29-16.66-74.42-44.3-114.8-66.07l-2.32-1.1L968,73.19Z"/></svg>